HIERARCHY
ROOT pelvis
{
  OFFSET 0 100 0
  CHANNELS 6 Xposition Yposition Zposition Zrotation Xrotation Yrotation
  JOINT pelvis_right_femur
  {
    OFFSET -10.78128 -3.44521 -0.5502486
    CHANNELS 3 Zrotation Xrotation Yrotation
    JOINT right_femur_tibia
    {
      OFFSET -0.8047443 -44.0398 -0.1307829
      CHANNELS 3 Zrotation Xrotation Yrotation
      JOINT right_tibia_foot
      {
        OFFSET 3.006224 -47.83518 -5
        CHANNELS 3 Zrotation Xrotation Yrotation
        End Site
        {
          OFFSET 0 -5 15
        }
      }
    }
  }
  JOINT pelvis_left_femur
  {
    OFFSET 10.78128 -3.44521 -0.5502486
    CHANNELS 3 Zrotation Xrotation Yrotation
    JOINT left_femur_tibia
    {
      OFFSET 0.8047443 -44.0398 -0.1307829
      CHANNELS 3 Zrotation Xrotation Yrotation
      JOINT left_tibia_foot
      {
        OFFSET -4.370144 -48.10324 -4.275266
        CHANNELS 3 Zrotation Xrotation Yrotation
        End Site
        {
          OFFSET 0 -5 15
        }
      }
    }
  }
  JOINT pelvis_spine1
  {
    OFFSET 0 6.468898 -3.129235
    CHANNELS 3 Zrotation Xrotation Yrotation
    JOINT spine1
    {
      OFFSET 0 23.15396 4.99043
      CHANNELS 3 Zrotation Xrotation Yrotation
      JOINT spine2
      {
        OFFSET 0 20.79997 -5.064912
        CHANNELS 3 Zrotation Xrotation Yrotation
        JOINT neck
        {
          OFFSET 0 14.38658 9.616178
          CHANNELS 3 Zrotation Xrotation Yrotation
          End Site
          {
            OFFSET 0 20 0
          }
        }
      }
      JOINT right_manubrium
      {
        OFFSET -5.722621 16.35077 3.967754
        CHANNELS 3 Zrotation Xrotation Yrotation
        JOINT right_clavicle
        {
          OFFSET -13.16364 1.694482 -4.693211
          CHANNELS 3 Zrotation Xrotation Yrotation
          JOINT right_humerus
          {
            OFFSET -28.5034 -0.3100689 -2.792744
            CHANNELS 3 Zrotation Xrotation Yrotation
            JOINT right_radius
            {
              OFFSET -25.15693 0.02248979 -1.271978
              CHANNELS 3 Zrotation Xrotation Yrotation
              End Site
              {
                OFFSET -15 0 0
              }
            }
          }
        }
      }
      JOINT left_manubrium
      {
        OFFSET 5.722621 16.35077 3.967754
        CHANNELS 3 Zrotation Xrotation Yrotation
        JOINT left_clavicle
        {
          OFFSET 13.16364 1.694482 -4.693211
          CHANNELS 3 Zrotation Xrotation Yrotation
          JOINT left_humerus
          {
            OFFSET 29.39168 -1.063119 -2.237045
            CHANNELS 3 Zrotation Xrotation Yrotation
            JOINT left_radius
            {
              OFFSET 24.59957 -0.9528479 0.9047498
              CHANNELS 3 Zrotation Xrotation Yrotation
              End Site
              {
                OFFSET 15 -0 -0
              }
            }
          }
        }
      }
    }
  }
}
MOTION
Frames: 13
Frame Time: 0.0416666666667
0 103.5113 0 2.243723 -1.181621 0.2982174 1.124417 -9.622952 8.668122 -0 33.77191 -0 -5.254997 -17.94965 -2.179161 -8.090625 9.906948 -23.39059 -0 5.528022 -0 7.561735 -15.98675 26.44683 -4.348843 -5.107768 5.004955 1.997293 9.219686 -7.713643 0.824047 22.82883 7.170343 3.256895 -23.04998 8.774058 6.35985 -19.72339 11.57374 86.33032 35.95331 -19.79124 -0 0 16.20126 -7.600961 8.256432 4.630627 5.488168 -19.46829 -1.709583 -94.7667 29.73904 22.89416 0 0 -15.97603 3.470836 17.86505 9.567929
0.3414379 103.9966 1.446224 2.21047 -1.057546 0.5456968 1.16727 -9.670163 8.472777 -0 32.38247 -0 -5.281316 -17.59905 -1.928867 -8.051992 9.67541 -23.07417 -0 6.296497 -0 7.219169 -15.91697 26.0547 -4.297513 -5.025443 5.037043 2.026522 9.205411 -7.680945 0.8218684 22.77182 7.179273 3.286301 -23.07522 8.739708 6.323052 -19.61334 11.56981 86.34749 35.94375 -19.82067 -0 0 16.02566 -7.689784 8.312612 4.68254 5.519439 -19.48315 -1.738017 -94.64892 29.68459 22.71702 0 0 -16.1768 3.461609 17.7084 9.569398
0.6937939 104.4772 3.044298 2.167873 -0.9062277 0.7926729 1.213229 -9.647928 8.209973 -0 30.52356 -0 -5.316838 -17.14864 -1.591022 -7.999151 9.30241 -22.63247 -0 7.37849 -0 6.746731 -15.78469 25.52097 -4.226852 -4.916854 5.088413 2.059578 9.189508 -7.631347 0.817025 22.70065 7.187648 3.323034 -23.09726 8.686646 6.271987 -19.46969 11.56636 86.36114 35.92798 -19.84098 -0 0 15.79843 -7.825952 8.392618 4.763013 5.554555 -19.49886 -1.776903 -94.49302 29.60453 22.4903 0 0 -16.42989 3.442368 17.49094 9.579138
1.059871 104.9536 4.825881 2.123102 -0.7466712 1.038898 1.250583 -9.490443 7.897993 -0 28.3319 -0 -5.358723 -16.64649 -1.187893 -7.934159 8.765736 -22.08396 -0 8.73743 -0 6.169041 -15.56878 24.8789 -4.140706 -4.791239 5.161933 2.089262 9.175483 -7.563861 0.8082775 22.62474 7.192233 3.36249 -23.10522 8.613238 6.209184 -19.30542 11.56504 86.36289 35.90541 -19.83593 -0 0 15.54189 -8.012867 8.493949 4.874647 5.585722 -19.51085 -1.823945 -94.31173 29.49957 22.2383 0 0 -16.70455 3.409178 17.22245 9.602508
1.442711 105.4279 6.814523 2.082889 -0.5957251 1.283305 1.269789 -9.138498 7.553287 -0 25.92916 -0 -5.403823 -16.13547 -0.7391605 -7.857639 8.045251 -21.44518 -0 10.34119 -0 5.508971 -15.25018 24.15919 -4.042546 -4.656812 5.260215 2.109126 9.166421 -7.477572 0.7944875 22.55255 7.190173 3.400621 -23.08935 8.517995 6.136918 -19.132 11.56731 86.34529 35.87564 -19.79105 -0 0 15.27584 -8.253653 8.614209 5.019848 5.605986 -19.51504 -1.87709 -94.11631 29.37054 21.98259 0 0 -16.97335 3.358599 16.91155 9.64424
1.845434 105.9037 9.026811 2.052861 -0.466938 1.524123 1.264521 -8.546881 7.190187 -0 23.41807 -0 -5.448911 -15.65059 -0.2615763 -7.768656 7.127533 -20.73116 -0 12.1594 -0 4.78773 -14.81506 23.38937 -3.935398 -4.520384 5.384989 2.114064 9.164763 -7.372055 0.7748133 22.49089 7.179224 3.434189 -23.04208 8.400066 6.057147 -18.95901 11.57428 86.30263 35.83832 -19.69521 -0 0 15.01666 -8.550088 8.751007 5.200167 5.609859 -19.50819 -1.934578 -93.9161 29.21855 21.74089 0 0 -17.21403 3.28824 16.56597 9.707772
2.271083 106.3855 11.47354 2.037141 -0.3700006 1.759086 1.231926 -7.688472 6.820813 -0 20.8808 -0 -5.490971 -15.21755 0.2310932 -7.664915 6.008538 -19.9557 -0 14.16169 -0 4.024724 -14.25645 22.59341 -3.821815 -4.387183 5.536743 2.100621 9.172185 -7.247611 0.7488221 22.44456 7.157876 3.460892 -22.95863 8.259517 5.9715 -18.79394 11.58661 86.23149 35.79309 -19.54146 -0 0 14.77683 -8.902012 8.901909 5.415916 5.593642 -19.48823 -1.994969 -93.71834 29.04514 21.52651 0 0 -17.41038 3.197028 16.19265 9.794925
2.722484 106.8792 14.16081 2.038266 -0.3108432 1.985686 1.172144 -6.554584 6.45516 -0 18.38011 -0 -5.527381 -14.85284 0.7278283 -7.543253 4.694093 -19.13136 -0 16.31684 -0 3.237355 -13.57453 21.79154 -3.703912 -4.260926 5.714656 2.066985 9.189624 -7.105314 0.7165089 22.41636 7.125354 3.479346 -22.83694 8.097378 5.881301 -18.64224 11.60458 86.13075 35.73953 -19.3271 -0 0 14.56508 -9.307266 9.064439 5.666111 5.555418 -19.45418 -2.057132 -93.52819 28.85219 21.34837 0 0 -17.55216 3.085172 15.79789 9.905934
3.202135 107.3908 17.09098 2.05734 -0.2921612 2.201416 1.08742 -5.15295 6.101293 -0 15.96246 -0 -5.555945 -14.56464 1.21988 -7.400252 3.199101 -18.26953 -0 18.59234 -0 2.440912 -12.7759 21.00036 -3.583466 -4.144049 5.916709 2.012769 9.217382 -6.946956 0.678254 22.40733 7.081546 3.488967 -22.67737 7.915554 5.787639 -18.50756 11.62806 86.00132 35.6771 -19.05318 -0 0 14.3868 -9.762006 9.236125 5.948626 5.49483 -19.40608 -2.120227 -93.349 28.64189 21.21145 0 0 -17.63432 2.953925 15.38736 10.03974
3.712137 107.9271 20.26346 2.094278 -0.3140721 2.403996 0.9811518 -3.505197 5.765576 -0 13.66226 -0 -5.574741 -14.35383 1.70014 -7.232889 1.546676 -17.38058 -0 20.9536 -0 1.648677 -11.8728 20.23319 -3.46208 -4.038026 6.139805 1.938731 9.25527 -6.774989 0.6347665 22.41702 7.026928 3.48983 -22.48212 7.716693 5.691451 -18.39201 11.6566 85.84592 35.6052 -18.72398 -0 0 14.24464 -10.26115 9.414544 6.260417 5.412806 -19.34478 -2.183706 -93.18246 28.41658 21.11731 0 0 -17.65599 2.805262 14.96618 10.19435
4.254164 108.4945 23.67532 2.148059 -0.3746934 2.591593 0.857084 -1.645141 5.45293 -0 11.50657 -0 -5.581838 -14.21452 2.162415 -7.039198 -0.2319649 -16.47414 -0 23.36236 -0 0.8722693 -10.88279 19.50064 -3.341397 -3.943685 6.379776 1.846526 9.302751 -6.592556 0.587047 22.44369 6.962523 3.482548 -22.25484 7.504121 5.593631 -18.29629 11.68939 85.66886 35.52306 -18.34658 -0 0 14.13892 -10.79882 9.597356 6.59771 5.311334 -19.2718 -2.24734 -93.02873 28.17876 21.06435 0 0 -17.61961 2.641586 14.53888 10.36723
4.829501 109.0992 27.32184 2.216923 -0.4705534 2.763069 0.7187089 0.3816586 5.167089 -0 9.519732 -0 -5.574924 -14.13396 2.600658 -6.81899 -2.096637 -15.55981 -0 25.77434 -0 0.1221583 -9.82887 18.81122 -3.223352 -3.861509 6.631273 1.738543 9.35905 -6.403608 0.5363811 22.48447 6.889916 3.468195 -22.0003 7.281855 5.495138 -18.2198 11.72528 85.47602 35.42972 -17.93081 -0 0 14.06796 -11.3687 9.782318 6.956109 5.193341 -19.18921 -2.311276 -92.88646 27.93107 21.04786 0 0 -17.53026 2.465477 14.10947 10.55559
5.439139 109.747 31.19689 2.298527 -0.5968565 2.918256 0.5688806 2.517707 4.910823 -0 7.727293 -0 -5.550975 -14.09222 3.00829 -6.574617 -3.997037 -14.64782 -0 28.13678 -0 -0.5918161 -8.739962 18.17179 -3.110402 -3.791875 6.887607 1.617806 9.423248 -6.213057 0.4843466 22.53532 6.81129 3.448248 -21.72418 7.054643 5.397093 -18.16066 11.76267 85.27491 35.32396 -17.48931 -0 0 14.02827 -11.96425 9.96729 7.330647 5.062628 -19.09963 -2.376104 -92.75268 27.67628 21.05997 0 0 -17.39526 2.279525 13.68142 10.75661
